<svg width="256" height="256" viewBox="0 0 256 256" fill="none" xmlns="http://www.w3.org/2000/svg">
<rect width="256" height="256" fill="white"/>
<path d="M37 68.6083H61.5875V188.315H37V68.6083Z" fill="black"/>
<path d="M85.7125 128.117C85.7125 119.08 87.3825 110.808 90.7224 103.303C94.0624 95.797 98.7384 89.3636 104.75 84.0025C110.814 78.5903 118.059 74.4035 126.486 71.4421C134.964 68.4807 144.342 67 154.619 67C164.845 67 174.196 68.4807 182.675 71.4421C191.153 74.4035 198.399 78.5903 204.411 84.0025C210.474 89.3636 215.176 95.797 218.516 103.303C221.856 110.808 223.526 119.08 223.526 128.117C223.526 136.184 222.19 143.664 219.518 150.557C216.897 157.399 213.172 163.475 208.341 168.785L230 188.315H199.015L191.539 181.575C186.298 184.333 180.594 186.426 174.428 187.856C168.262 189.285 161.659 190 154.619 190C144.342 190 134.964 188.494 126.486 185.481C118.059 182.418 110.814 178.154 104.75 172.691C98.7384 167.228 94.0624 160.718 90.7224 153.161C87.3825 145.554 85.7125 137.205 85.7125 128.117ZM110.146 128.117C110.146 134.295 111.251 139.861 113.46 144.813C115.721 149.766 118.83 154.004 122.786 157.527C126.794 160.999 131.496 163.679 136.891 165.568C142.338 167.458 148.247 168.402 154.619 168.402C161.453 168.402 167.696 167.33 173.349 165.186L138.818 134.091H169.803L190.768 153.008C193.389 149.689 195.418 145.962 196.857 141.826C198.347 137.639 199.092 133.07 199.092 128.117C199.092 121.939 197.962 116.399 195.701 111.498C193.44 106.596 190.331 102.46 186.375 99.0903C182.418 95.6694 177.716 93.0654 172.27 91.2783C166.874 89.4913 160.991 88.5978 154.619 88.5978C148.247 88.5978 142.338 89.4913 136.891 91.2783C131.496 93.0654 126.794 95.6694 122.786 99.0903C118.83 102.46 115.721 106.596 113.46 111.498C111.251 116.399 110.146 121.939 110.146 128.117Z" fill="black"/>
</svg>
