<svg width="109" height="69" viewBox="0 0 109 69" fill="none" xmlns="http://www.w3.org/2000/svg">
<path d="M0 0.902242H13.8862V68.0548H0V0.902242Z" fill="black"/>
<path d="M27.5112 34.2852C27.5112 29.2154 28.4543 24.5753 30.3407 20.3649C32.227 16.1544 34.8678 12.5455 38.2632 9.53798C41.6876 6.50187 45.7794 4.15318 50.5387 2.49191C55.3271 0.830635 60.6233 0 66.4273 0C72.2023 0 77.484 0.830635 82.2724 2.49191C87.0607 4.15318 91.1526 6.50187 94.5479 9.53798C97.9723 12.5455 100.628 16.1544 102.514 20.3649C104.4 24.5753 105.343 29.2154 105.343 34.2852C105.343 38.8107 104.589 43.0068 103.08 46.8736C101.6 50.7117 99.4959 54.1202 96.768 57.099L109 68.0548H91.5008L87.2784 64.274C84.3183 65.8207 81.097 66.995 77.6146 67.797C74.1322 68.599 70.4031 69 66.4273 69C60.6233 69 55.3271 68.155 50.5387 66.4651C45.7794 64.7466 41.6876 62.3549 38.2632 59.2902C34.8678 56.2254 32.227 52.5735 30.3407 48.3344C28.4543 44.0666 27.5112 39.3836 27.5112 34.2852ZM41.3103 34.2852C41.3103 37.7509 41.9342 40.873 43.1821 43.6513C44.459 46.4296 46.2147 48.807 48.4493 50.7833C50.7129 52.731 53.3682 54.2347 56.4153 55.2945C59.4915 56.3543 62.8288 56.8842 66.4273 56.8842C70.287 56.8842 73.813 56.2827 77.0052 55.0797L57.5036 37.6364H75.0028L86.8431 48.2484C88.3231 46.3867 89.4694 44.2958 90.282 41.9757C91.1235 39.627 91.5443 37.0635 91.5443 34.2852C91.5443 30.8194 90.9059 27.7117 89.629 24.962C88.3521 22.2123 86.5964 19.8923 84.3618 18.0019C82.1273 16.0828 79.4719 14.622 76.3958 13.6196C73.3486 12.6171 70.0258 12.1158 66.4273 12.1158C62.8288 12.1158 59.4915 12.6171 56.4153 13.6196C53.3682 14.622 50.7129 16.0828 48.4493 18.0019C46.2147 19.8923 44.459 22.2123 43.1821 24.962C41.9342 27.7117 41.3103 30.8194 41.3103 34.2852Z" fill="black"/>
</svg>
